<?xml version="1.0" encoding="UTF-8"?>
<svg xmlns="http://www.w3.org/2000/svg" id="Layer_2" viewBox="0 0 145.61 66.87">
  <defs>
    <style>.cls-1{fill:#efe7e2;}</style>
  </defs>
  <g id="Layer_1-2">
    <path class="cls-1" d="m32.64,40.51v-2.47c.57-.02,1.05-.1,1.44-.22s.69-.41.9-.86c.21-.45.32-1.17.32-2.17v-16.99c0-.67.02-1.32.06-1.94.04-.62.07-1.1.09-1.42-.4.03-.9.04-1.5.06-.6.01-1.04.03-1.31.06v-2.88h10.73v2.47c-.55.03-1.02.1-1.42.22-.4.12-.7.41-.92.84-.21.44-.32,1.17-.32,2.19v17c0,.67-.01,1.31-.04,1.91-.03.6-.06,1.06-.11,1.38h5.01c1.47,0,2.62-.51,3.46-1.53.83-1.02,1.25-2.56,1.25-4.6h2.51l-.22,8.97h-19.93Z"></path>
    <path class="cls-1" d="m64.8,33.76c-1.79,0-3.42-.39-4.86-1.16-1.45-.77-2.59-1.88-3.42-3.31-.84-1.43-1.25-3.12-1.25-5.07,0-2.07.43-3.88,1.29-5.44.86-1.56,2.01-2.77,3.44-3.63,1.43-.86,3-1.29,4.69-1.29,1.79,0,3.4.39,4.82,1.16,1.42.77,2.54,1.88,3.37,3.31.82,1.43,1.23,3.15,1.23,5.14,0,2.09-.4,3.91-1.2,5.46-.8,1.55-1.89,2.74-3.29,3.57s-3,1.25-4.82,1.25Zm.15-2.65c1-.02,1.75-.37,2.26-1.05s.87-1.52,1.07-2.54c.2-1.02.3-2.06.3-3.1,0-.92-.07-1.86-.21-2.8-.14-.95-.36-1.81-.65-2.58-.3-.77-.7-1.4-1.22-1.87-.51-.47-1.14-.7-1.89-.67-.97.03-1.74.37-2.3,1.05-.56.67-.96,1.51-1.2,2.52-.24,1.01-.36,2.06-.36,3.16,0,1.27.14,2.52.41,3.74.27,1.22.72,2.22,1.33,3.01.61.79,1.43,1.17,2.45,1.14Z"></path>
    <path class="cls-1" d="m90.08,41.11c-2.69,0-4.99-.59-6.88-1.78-1.89-1.18-3.34-2.79-4.34-4.81-1-2.02-1.5-4.26-1.5-6.73,0-1.7.27-3.38.8-5.05.54-1.67,1.34-3.18,2.41-4.54,1.07-1.36,2.42-2.44,4.06-3.25,1.63-.81,3.53-1.22,5.7-1.22.67,0,1.43.07,2.28.21.85.14,1.7.34,2.56.62.86.27,1.63.61,2.3,1.01l-.15-1.57h2.88v8.71h-2.43c-.22-1.4-.66-2.56-1.31-3.48-.65-.92-1.46-1.62-2.43-2.09-.97-.47-2.04-.71-3.22-.71-1.3,0-2.43.3-3.38.9s-1.75,1.4-2.37,2.39c-.62,1-1.09,2.13-1.4,3.4-.31,1.27-.47,2.58-.47,3.93,0,2.14.3,4.05.9,5.72.6,1.67,1.48,2.99,2.64,3.94,1.16.96,2.59,1.44,4.28,1.44.47,0,1.03-.04,1.68-.11s1.3-.19,1.94-.34c.65-.15,1.2-.34,1.65-.56v-3.48c0-.67.02-1.32.06-1.94.04-.62.07-1.1.09-1.42-.4.03-.9.04-1.5.06-.6.01-1.03.03-1.31.06v-2.88h9.95v2.47c-.42.03-.79.07-1.1.15-.31.07-.57.22-.78.43-.21.21-.37.53-.47.95-.1.42-.15,1-.15,1.72v5.98h-.9c-.72,0-1.45.1-2.17.3-.72.2-1.5.42-2.32.67-.77.22-1.62.43-2.54.62-.92.19-1.94.28-3.07.28Z"></path>
    <path class="cls-1" d="m116.89,40.51c-.05-.35-.08-.64-.09-.88-.01-.24-.03-.52-.06-.84-.85.85-1.75,1.45-2.69,1.79s-1.91.52-2.88.52c-1.6,0-2.84-.47-3.74-1.42-.9-.95-1.35-2.13-1.35-3.55,0-1.2.31-2.22.92-3.07.61-.85,1.42-1.54,2.43-2.08,1.01-.54,2.13-.95,3.37-1.23,1.23-.29,2.47-.45,3.72-.51v-1.94c0-.65-.08-1.23-.24-1.76s-.44-.93-.82-1.23c-.39-.3-.93-.44-1.63-.41-.47.03-.93.13-1.38.3-.45.17-.84.42-1.16.75.2.22.32.47.37.73.05.26.07.49.07.69,0,.5-.2,1.02-.6,1.55-.4.54-1.04.79-1.91.77-.75-.02-1.32-.29-1.72-.79-.4-.5-.6-1.08-.6-1.76,0-1,.36-1.86,1.07-2.6.71-.74,1.66-1.31,2.86-1.72,1.2-.41,2.52-.62,3.96-.62,2.19,0,3.89.57,5.1,1.7,1.21,1.13,1.81,2.95,1.81,5.44v2.17c0,.6,0,1.2-.02,1.79-.01.6-.02,1.32-.02,2.17,0,.35-.01.84-.04,1.48-.03.64-.06,1.24-.11,1.81.42-.05.87-.08,1.35-.09.47-.01.83-.02,1.08-.02v2.84h-7.07Zm-.41-8.6c-.7.07-1.36.2-1.98.37-.62.17-1.17.41-1.63.71s-.82.66-1.08,1.08c-.26.42-.39.9-.39,1.42.02.7.25,1.2.67,1.5.42.3.91.45,1.46.45s1.11-.12,1.61-.37c.5-.25.95-.57,1.35-.97v-4.19Z"></path>
    <path class="cls-1" d="m26.96,48.47c-.32-2.07-1.02-3.63-2.08-4.67-1.06-1.05-2.46-1.58-4.21-1.61-1.3,0-2.43.3-3.4.9-.97.6-1.78,1.4-2.41,2.39-.64,1-1.11,2.13-1.42,3.4-.31,1.27-.47,2.58-.47,3.93,0,2.14.31,4.04.92,5.7s1.5,2.96,2.67,3.91c1.17.95,2.59,1.42,4.26,1.42,1.57,0,3.13-.41,4.67-1.22,1.55-.81,2.84-1.94,3.89-3.38l1.79,1.65c-1.22,1.67-2.51,2.94-3.85,3.8-1.35.86-2.66,1.44-3.95,1.74-1.28.3-2.44.45-3.46.45-1.92,0-3.67-.34-5.24-1.03-1.57-.69-2.92-1.63-4.06-2.84-1.13-1.21-2.01-2.62-2.62-4.23-.61-1.61-.92-3.35-.92-5.22,0-1.7.27-3.38.82-5.05.55-1.67,1.37-3.18,2.45-4.54,1.08-1.36,2.45-2.44,4.09-3.25,1.65-.81,3.55-1.22,5.72-1.22.97,0,2.04.16,3.2.47,1.16.31,2.25.77,3.27,1.37l-.15-1.57h2.88v8.71h-2.43Z"></path>
    <path class="cls-1" d="m41.54,66.87c-1.5,0-2.7-.29-3.61-.86s-1.57-1.47-1.98-2.69c-.41-1.22-.62-2.79-.62-4.71v-4.3c0-.45.01-.97.04-1.55.02-.59.05-1.15.07-1.7-.4.02-.87.04-1.4.06-.54.01-.94.03-1.22.06v-2.84h.37c1.55,0,2.77-.12,3.66-.37.9-.25,1.47-.5,1.72-.75h2.06v11.44c0,1.62.21,2.82.64,3.61s1.1,1.18,2.02,1.18c.65,0,1.3-.18,1.96-.54.66-.36,1.2-.78,1.63-1.25v-7.33c0-.45.01-.97.04-1.55.02-.59.06-1.15.11-1.7-.4.02-.87.04-1.4.06-.54.01-.94.03-1.22.06v-2.84h.9c1.17,0,2.21-.13,3.1-.39.9-.26,1.47-.51,1.72-.73h2.06v13.05c0,.35-.01.84-.04,1.48-.03.64-.06,1.24-.11,1.81.4-.05.84-.08,1.33-.09.49-.01.85-.02,1.1-.02v2.84h-7.1c-.03-.32-.06-.65-.09-.97-.04-.32-.08-.65-.13-.97-.77.65-1.6,1.23-2.49,1.76-.88.52-1.93.79-3.12.79Z"></path>
    <path class="cls-1" d="m57.06,63.84c.7,0,1.2-.14,1.51-.41.31-.27.51-.67.58-1.18.07-.51.11-1.09.11-1.74v-16.76c0-.45.01-.97.04-1.55.02-.59.06-1.15.11-1.7-.4.02-.87.04-1.4.06-.54.01-.94.03-1.22.06v-2.84c1.17,0,2.15-.06,2.94-.19.78-.12,1.41-.27,1.87-.45.46-.17.78-.34.95-.49h2.02v23.6c0,.35-.01.84-.04,1.48-.03.64-.06,1.24-.11,1.81.42-.05.87-.08,1.35-.09.47-.01.83-.02,1.08-.02v2.84h-9.8v-2.43Z"></path>
    <path class="cls-1" d="m77.48,66.87c-.75,0-1.47-.09-2.17-.26-.7-.17-1.32-.5-1.87-.99-.55-.49-.98-1.2-1.31-2.15-.32-.95-.49-2.21-.49-3.78l.07-9.01h-2.54v-3.1c.77-.02,1.52-.29,2.24-.78.72-.5,1.34-1.15,1.85-1.94.51-.8.85-1.63,1.03-2.51h2.77l-.04,5.24h4.75v2.88l-4.75.11-.04,9.2c0,.57.06,1.14.17,1.7.11.56.33,1.02.65,1.38.32.36.8.54,1.42.54.35,0,.83-.12,1.44-.37.61-.25,1.26-.87,1.96-1.87l1.8,1.68c-.67,1-1.37,1.77-2.09,2.32-.72.55-1.42.95-2.07,1.2-.66.25-1.24.4-1.74.45-.5.05-.85.07-1.05.07Z"></path>
    <path class="cls-1" d="m94.01,66.87c-1.5,0-2.7-.29-3.61-.86s-1.57-1.47-1.98-2.69c-.41-1.22-.62-2.79-.62-4.71v-4.3c0-.45.01-.97.04-1.55.02-.59.05-1.15.07-1.7-.4.02-.87.04-1.4.06-.54.01-.94.03-1.22.06v-2.84h.37c1.55,0,2.77-.12,3.66-.37.9-.25,1.47-.5,1.72-.75h2.06v11.44c0,1.62.21,2.82.64,3.61s1.1,1.18,2.02,1.18c.65,0,1.3-.18,1.96-.54.66-.36,1.2-.78,1.63-1.25v-7.33c0-.45.01-.97.04-1.55.02-.59.06-1.15.11-1.7-.4.02-.87.04-1.4.06-.54.01-.94.03-1.22.06v-2.84h.9c1.17,0,2.21-.13,3.1-.39.9-.26,1.47-.51,1.72-.73h2.06v13.05c0,.35-.01.84-.04,1.48-.03.64-.06,1.24-.11,1.81.4-.05.84-.08,1.33-.09.49-.01.85-.02,1.1-.02v2.84h-7.1c-.03-.32-.06-.65-.09-.97-.04-.32-.08-.65-.13-.97-.77.65-1.6,1.23-2.49,1.76-.88.52-1.93.79-3.12.79Z"></path>
    <path class="cls-1" d="m110.12,63.84c.7,0,1.2-.14,1.5-.41s.49-.67.58-1.18c.09-.51.13-1.09.13-1.74v-6.28c0-.45.01-.95.04-1.51.03-.56.06-1.12.11-1.66-.4.02-.87.04-1.4.06-.54.01-.94.03-1.22.06v-2.84h1.5c.97,0,1.86-.12,2.67-.37.81-.25,1.34-.5,1.59-.75h1.83c.05.25.09.72.11,1.4.03.69.04,1.29.04,1.81.67-.82,1.31-1.48,1.91-1.98.6-.5,1.19-.87,1.78-1.1.59-.24,1.18-.36,1.78-.36.87,0,1.63.24,2.28.73.65.49.97,1.28.97,2.37,0,.37-.09.77-.26,1.18-.17.41-.45.75-.82,1.03-.37.27-.88.41-1.53.41-.5,0-1.01-.15-1.53-.45s-.82-.87-.9-1.72c-.5,0-1,.21-1.5.62-.5.41-.94.9-1.33,1.46-.39.56-.65,1.08-.8,1.55v6.1c0,.35-.01.84-.04,1.48-.02.64-.06,1.24-.11,1.81.4-.05.84-.08,1.33-.09.49-.01.85-.02,1.1-.02v2.84h-9.8v-2.43Z"></path>
    <path class="cls-1" d="m136.9,66.87c-1.82,0-3.43-.41-4.82-1.22-1.4-.81-2.48-1.96-3.25-3.44-.77-1.48-1.16-3.23-1.16-5.25,0-1.74.39-3.38,1.16-4.9.77-1.52,1.86-2.75,3.27-3.68,1.41-.93,3.05-1.4,4.92-1.4,1.05,0,2.07.14,3.07.43,1,.29,1.9.78,2.71,1.48.81.7,1.46,1.65,1.94,2.84.49,1.2.72,2.69.69,4.49l-12.27.22c0,1.35.17,2.56.51,3.63.34,1.07.89,1.92,1.66,2.54s1.81.93,3.1.93c.5,0,1.07-.09,1.7-.26.64-.17,1.28-.47,1.94-.88.66-.41,1.28-.97,1.85-1.66l1.68,1.57c-.9,1.27-1.86,2.24-2.88,2.9-1.02.66-2.04,1.1-3.05,1.33-1.01.22-1.94.34-2.79.34Zm-3.52-13.05h6.88c-.03-1.05-.17-1.88-.43-2.49-.26-.61-.62-1.05-1.07-1.33-.45-.27-.97-.41-1.57-.41-1.1,0-1.96.39-2.58,1.18-.62.79-1.04,1.8-1.23,3.05Z"></path>
    <path class="cls-1" d="m16.15,33.7c-.4,0-.8-.16-1.11-.47l-.13-.13c-.35-.35-.71-.71-1.06-1.06-3.08-3.11-6.46-6.83-7.6-11.66-.58-2.47-.54-4.88.11-6.97.7-2.21,2.06-4.07,3.95-5.4,1.79-1.26,3.94-1.95,6.06-1.95.04,0,.08,0,.13,0,2.15.03,4.25.76,6.07,2.12,1.74,1.31,3.06,3.14,3.7,5.15h0c.75,2.36.63,5.05-.32,7.59-.39,1.05-.96,2.11-1.78,3.35-.74,1.11-1.44,2.1-2.16,3.02-.56.71-1.13,1.41-1.71,2.11-.94,1.14-1.91,2.31-2.76,3.52-.13.18-.27.33-.44.45-.01.01-.06.04-.07.05,0,0-.02.01-.04.02h0c-.26.16-.55.25-.83.25Zm.22-25.54c-1.69,0-3.41.55-4.85,1.57-1.51,1.06-2.6,2.55-3.15,4.31-.54,1.72-.57,3.75-.07,5.85,1.02,4.3,4.17,7.76,7.05,10.67.25.25.5.51.76.76.8-1.11,1.7-2.19,2.57-3.25.56-.68,1.13-1.36,1.67-2.06.68-.88,1.36-1.82,2.06-2.89.73-1.11,1.23-2.04,1.57-2.94.79-2.1.89-4.31.29-6.22-.51-1.6-1.56-3.06-2.95-4.1-1.46-1.09-3.13-1.68-4.84-1.7-.03,0-.07,0-.1,0Zm.04,14.06c-1.04,0-2.06-.28-2.96-.83-1.42-.87-2.4-2.27-2.69-3.85-.32-1.74.2-3.41,1.48-4.71.82-.84,1.88-1.39,3.05-1.59,1.63-.27,3.14-.01,4.24.72.62.41,1.17.95,1.59,1.54.37.52.62,1.17.77,1.97.13.68.14,1.27.03,1.92,0,0,0,0,0,0-.36,2.12-1.67,3.8-3.52,4.49-.66.23-1.33.34-1.99.34Zm.14-8.98c-.35,0-.67.04-.91.08-.72.12-1.38.46-1.89.98-.79.81-1.11,1.8-.91,2.86.18.99.81,1.88,1.72,2.44.92.56,2.06.67,3.13.3,1.12-.42,1.93-1.49,2.16-2.86.07-.4.06-.74-.02-1.18-.09-.5-.24-.89-.42-1.16-.27-.38-.63-.73-1.03-1-.56-.37-1.23-.47-1.82-.47Zm4.34,3.98h0,0Z"></path>
    <path class="cls-1" d="m16.32,3.05c.02-.72,0-1.44-.05-2.16-.02-.24-.09-.46-.26-.63-.15-.15-.41-.27-.63-.26s-.47.09-.63.26-.28.39-.26.63c.05.72.07,1.44.05,2.16-.01.47.42.91.89.89s.88-.39.89-.89h0Z"></path>
    <path class="cls-1" d="m10.72,3.83c-.45-.66-.91-1.31-1.36-1.97-.13-.19-.3-.34-.53-.41-.21-.06-.5-.03-.69.09s-.36.3-.41.53-.05.49.09.69c.45.66.91,1.31,1.36,1.97.13.19.3.34.53.41.21.06.5.03.69-.09s.36-.3.41-.53.05-.49-.09-.69h0Z"></path>
    <path class="cls-1" d="m5.92,7.14c-.78-.41-1.61-.76-2.45-1.03-.44-.14-.99.17-1.09.62-.11.49.15.94.62,1.09.4.13.79.27,1.18.43l-.21-.09c.36.15.71.32,1.06.5.21.11.45.15.69.09.21-.06.43-.22.53-.41.22-.41.12-.98-.32-1.22h0Z"></path>
    <path class="cls-1" d="m3.38,12.11c-.83-.07-1.66-.11-2.49-.12-.47,0-.91.41-.89.89s.39.89.89.89c.83,0,1.66.05,2.49.12.22.02.48-.11.63-.26s.27-.41.26-.63-.09-.47-.26-.63-.38-.24-.63-.26h0Z"></path>
  </g>
</svg>
